<?xml version="1.0" encoding="UTF-8"?><svg id="Layer_2" xmlns="http://www.w3.org/2000/svg" xmlns:xlink="http://www.w3.org/1999/xlink" viewBox="0 0 426.2129 107.8686"><defs><style>.cls-1{fill:#fff;}.cls-2{fill:url(#linear-gradient);}</style><linearGradient id="linear-gradient" x1="38.5196" y1="0" x2="38.5196" y2="105.4159" gradientUnits="userSpaceOnUse"><stop offset="0" stop-color="#fbb03c"/><stop offset=".1485" stop-color="#faa83a"/><stop offset=".3721" stop-color="#f89336"/><stop offset=".6428" stop-color="#f5722f"/><stop offset=".9481" stop-color="#f04325"/><stop offset="1" stop-color="#f03b24"/></linearGradient></defs><g id="Layer_1-2"><g><g><path class="cls-1" d="M105.4922,89.5727c-.4629,0-.8555-.1611-1.1787-.4854-.3232-.3223-.4844-.7158-.4844-1.1777V42.0327c0-.4609,.1611-.8545,.4844-1.1777s.7158-.4854,1.1787-.4854h5.752c.4609,0,.8545,.1621,1.1777,.4854,.3223,.3232,.4854,.7168,.4854,1.1777v45.877c0,.4619-.1631,.8555-.4854,1.1777-.3232,.3242-.7168,.4854-1.1777,.4854h-5.752Z"/><path class="cls-1" d="M140.6973,90.2661c-2.8193,0-5.2568-.6357-7.3115-1.9062-2.0566-1.2695-3.6387-3.0723-4.7471-5.4053-1.1094-2.332-1.6631-5.0938-1.6631-8.2812v-19.4736c0-.4609,.1611-.8545,.4854-1.1777,.3223-.3232,.7148-.4854,1.1777-.4854h6.0986c.5078,0,.9111,.1621,1.2129,.4854,.2998,.3232,.4502,.7168,.4502,1.1777v19.0576c0,5.7295,2.5176,8.5938,7.5537,8.5938,2.4014,0,4.3076-.7627,5.7168-2.2871s2.1143-3.627,2.1143-6.3066v-19.0576c0-.4609,.1611-.8545,.4854-1.1777,.3223-.3232,.7148-.4854,1.1777-.4854h6.0986c.4609,0,.8545,.1621,1.1777,.4854s.4854,.7168,.4854,1.1777v32.71c0,.4619-.1621,.8555-.4854,1.1777-.3232,.3242-.7168,.4854-1.1777,.4854h-5.6133c-.5088,0-.9131-.1611-1.2129-.4854-.3008-.3223-.4502-.7158-.4502-1.1777v-2.8418c-1.248,1.6182-2.7959,2.8887-4.6436,3.8115-1.8486,.9238-4.1582,1.3867-6.9297,1.3867Z"/><path class="cls-1" d="M188.9287,90.2661c-2.4033,0-4.5166-.4053-6.3418-1.2129s-3.3379-1.9512-4.5391-3.4307c-1.2012-1.4775-2.125-3.2227-2.7715-5.2324-.6475-2.0098-1.0166-4.2148-1.1094-6.6182-.0459-.8311-.0693-1.582-.0693-2.252,0-.6689,.0234-1.4209,.0693-2.252,.0928-2.3096,.4512-4.458,1.0742-6.4453,.624-1.9863,1.5479-3.7305,2.7725-5.2324,1.2236-1.501,2.748-2.668,4.5732-3.499,1.8252-.832,3.9385-1.248,6.3418-1.248,2.4941,0,4.6084,.4277,6.3408,1.2822,1.7324,.8555,3.1758,1.9521,4.3311,3.292v-15.3848c0-.4609,.1494-.8545,.4502-1.1777,.2998-.3232,.7041-.4854,1.2129-.4854h5.8906c.4609,0,.8545,.1621,1.1777,.4854s.4854,.7168,.4854,1.1777v45.877c0,.4619-.1621,.8555-.4854,1.1777-.3232,.3242-.7168,.4854-1.1777,.4854h-5.4746c-.5088,0-.9131-.1611-1.2129-.4854-.3008-.3223-.4502-.7158-.4502-1.1777v-2.5645c-1.1553,1.4326-2.623,2.6113-4.4004,3.5342-1.7793,.9238-4.0088,1.3867-6.6875,1.3867Zm2.5635-7.415c1.9404,0,3.4883-.4395,4.6436-1.3174,1.1543-.877,2.0098-1.998,2.5635-3.3613,.5547-1.3613,.8545-2.7598,.9014-4.1924,.0459-.8311,.0693-1.7207,.0693-2.668,0-.9463-.0234-1.8359-.0693-2.668-.0469-1.3857-.3701-2.7139-.9697-3.9844-.6016-1.2705-1.4795-2.3223-2.6338-3.1533-1.1553-.832-2.6572-1.248-4.5049-1.248-1.9404,0-3.4766,.4277-4.6084,1.2822-1.1328,.8555-1.9521,1.9756-2.46,3.3613-.5088,1.3857-.8086,2.9102-.9014,4.5742-.0459,1.3857-.0459,2.7715,0,4.1572,.0928,1.6631,.3926,3.1885,.9014,4.5742,.5078,1.3857,1.3271,2.5068,2.46,3.3613,1.1318,.8555,2.668,1.2822,4.6084,1.2822Z"/><path class="cls-1" d="M238.7549,90.2661c-5.1279,0-9.1934-1.4785-12.1963-4.4355-3.0039-2.9561-4.6201-7.1611-4.8516-12.6123-.0459-.4619-.0693-1.0508-.0693-1.7676,0-.7158,.0234-1.2822,.0693-1.6982,.1846-3.4648,.9814-6.4678,2.3916-9.0088,1.4082-2.54,3.3604-4.4922,5.8555-5.8555,2.4951-1.3623,5.4287-2.0449,8.8008-2.0449,3.7432,0,6.8838,.7744,9.4258,2.3223,2.54,1.5479,4.458,3.6963,5.752,6.4443,1.292,2.749,1.9404,5.9258,1.9404,9.5293v1.4551c0,.4619-.1631,.8555-.4854,1.1777-.3242,.3242-.7402,.4854-1.248,.4854h-23.0078v.5547c.0459,1.6172,.3574,3.1074,.9355,4.4697,.5771,1.3633,1.4316,2.46,2.5645,3.292,1.1318,.8311,2.4834,1.2471,4.0547,1.2471,1.292,0,2.3789-.1963,3.2568-.5889,.877-.3926,1.5938-.8428,2.1484-1.3516,.5537-.5078,.9463-.9238,1.1777-1.2471,.416-.5547,.75-.8896,1.0049-1.0049,.2539-.1152,.6348-.1738,1.1436-.1738h5.96c.4609,0,.8418,.1387,1.1436,.416,.2998,.2773,.4268,.624,.3809,1.04-.0469,.7393-.4277,1.6396-1.1436,2.7021-.7168,1.0635-1.7441,2.1025-3.084,3.1182-1.3398,1.0176-3.0146,1.8604-5.0244,2.5303-2.0098,.6689-4.3086,1.0049-6.8955,1.0049Zm-7.623-21.8301h15.3154v-.208c0-1.8018-.3008-3.3721-.9004-4.7119-.6006-1.3398-1.4795-2.4023-2.6338-3.1885-1.1553-.7852-2.541-1.1777-4.1582-1.1777s-3.0029,.3926-4.1572,1.1777c-1.1553,.7861-2.0215,1.8486-2.5986,3.1885-.5791,1.3398-.8672,2.9102-.8672,4.7119v.208Z"/><path class="cls-1" d="M265.9209,89.5727c-.415,0-.7734-.1494-1.0742-.4502-.3008-.2998-.4502-.6582-.4502-1.0742,0-.1387,.0352-.2998,.1045-.4854,.0693-.1836,.1953-.416,.3809-.6934l11.7812-15.7998-10.9492-14.8311c-.1387-.2305-.2432-.4385-.3125-.623s-.1035-.3691-.1035-.5547c0-.416,.1494-.7734,.4502-1.0742,.2998-.2998,.6582-.4502,1.0742-.4502h6.0293c.5537,0,.9697,.1387,1.2471,.416,.2773,.2764,.4854,.5312,.624,.7617l7.8311,10.3955,7.8311-10.3955c.1836-.2305,.4033-.4854,.6582-.7617,.2529-.2773,.6582-.416,1.2129-.416h5.752c.415,0,.7725,.1504,1.0742,.4502,.2998,.3008,.4502,.6357,.4502,1.0049,0,.2314-.0352,.4395-.1045,.624s-.1729,.3926-.3115,.623l-11.0879,14.9697,11.8506,15.6611c.1836,.2773,.3115,.5098,.3809,.6934,.0693,.1855,.1035,.3467,.1035,.4854,0,.416-.1504,.7744-.4502,1.0742-.3008,.3008-.6582,.4502-1.0742,.4502h-6.3066c-.5088,0-.9004-.127-1.1777-.3809s-.5088-.4961-.6934-.7275l-8.3154-11.0195-8.4551,11.0195c-.1846,.2314-.4043,.4736-.6582,.7275s-.6582,.3809-1.2129,.3809h-6.0986Z"/><path class="cls-1" d="M312.9756,89.5727c-.4629,0-.8555-.1611-1.1777-.4854-.3242-.3223-.4854-.7158-.4854-1.1777v-6.8613c0-.5078,.1611-.9229,.4854-1.2471,.3223-.3223,.7148-.4854,1.1777-.4854h6.9297c.4619,0,.8545,.1631,1.1787,.4854,.3223,.3242,.4844,.7393,.4844,1.2471v6.8613c0,.4619-.1621,.8555-.4844,1.1777-.3242,.3242-.7168,.4854-1.1787,.4854h-6.9297Z"/><path class="cls-1" d="M351.2989,104.8188c-3.373,0-6.1445-.4395-8.3164-1.3164-2.1719-.8789-3.8809-1.9404-5.1279-3.1885-1.2471-1.2471-2.1377-2.4834-2.668-3.707-.5312-1.2246-.8203-2.1836-.8662-2.876-.0469-.4629,.1035-.8662,.4502-1.2129s.751-.5195,1.2129-.5195h6.0293c.4609,0,.832,.1035,1.1084,.3115,.2773,.208,.5078,.5889,.6934,1.1436,.2773,.5996,.6465,1.2471,1.1084,1.9404s1.167,1.2822,2.1143,1.7676c.9463,.4844,2.252,.7275,3.915,.7275,1.7559,0,3.2334-.2549,4.4355-.7627,1.2012-.5088,2.1133-1.3633,2.7373-2.5645s.9355-2.8652,.9355-4.9893v-4.7129c-1.1084,1.3408-2.5293,2.4258-4.2617,3.2578-1.7324,.8311-3.8701,1.2471-6.4102,1.2471-2.4951,0-4.6436-.4033-6.4453-1.2129-1.8018-.8076-3.3037-1.9404-4.5049-3.3955s-2.1133-3.1758-2.7373-5.1631c-.623-1.9854-.9814-4.1807-1.0742-6.583-.0459-1.248-.0459-2.4951,0-3.7422,.0928-2.3096,.4385-4.458,1.04-6.4453,.5996-1.9863,1.5127-3.7305,2.7373-5.2324,1.2236-1.501,2.7373-2.668,4.5391-3.499,1.8018-.832,3.9502-1.248,6.4453-1.248,2.6328,0,4.8506,.4971,6.6523,1.4902,1.8018,.9941,3.2803,2.2295,4.4355,3.708v-2.7725c0-.5078,.1611-.9238,.4854-1.2471,.3223-.3232,.7148-.4854,1.1777-.4854h5.6133c.4609,0,.8545,.1621,1.1777,.4854s.4854,.7393,.4854,1.2471l.0693,33.4023c0,3.3271-.624,6.1914-1.8711,8.5938-1.2471,2.4014-3.1299,4.2617-5.6475,5.5791-2.5195,1.3164-5.7412,1.9746-9.668,1.9746Zm-.3467-22.7998c1.8945,0,3.4189-.416,4.5742-1.2471,1.1543-.832,2.0098-1.917,2.5645-3.2578,.5537-1.3389,.877-2.7021,.9697-4.0889,.0459-.5996,.0693-1.3613,.0693-2.2861,0-.9238-.0234-1.6631-.0693-2.2178-.0928-1.4316-.416-2.8066-.9697-4.124-.5547-1.3164-1.4102-2.4014-2.5645-3.2568-1.1553-.8545-2.6797-1.2822-4.5742-1.2822s-3.4189,.4277-4.5732,1.2822c-1.1553,.8555-1.9756,1.9756-2.4609,3.3613-.4844,1.3857-.7734,2.9102-.8662,4.5742-.0928,1.1084-.0928,2.2412,0,3.3955,.0928,1.6172,.3818,3.1299,.8662,4.5391,.4854,1.4102,1.3057,2.5293,2.4609,3.3613,1.1543,.8311,2.6787,1.2471,4.5732,1.2471Z"/><path class="cls-1" d="M399.1856,104.8188c-3.373,0-6.1445-.4395-8.3164-1.3164-2.1719-.8789-3.8809-1.9404-5.1279-3.1885-1.2471-1.2471-2.1377-2.4834-2.668-3.707-.5312-1.2246-.8203-2.1836-.8662-2.876-.0469-.4629,.1035-.8662,.4502-1.2129s.751-.5195,1.2129-.5195h6.0293c.4609,0,.832,.1035,1.1084,.3115,.2773,.208,.5078,.5889,.6934,1.1436,.2773,.5996,.6465,1.2471,1.1084,1.9404s1.167,1.2822,2.1143,1.7676c.9463,.4844,2.252,.7275,3.915,.7275,1.7559,0,3.2334-.2549,4.4355-.7627,1.2012-.5088,2.1133-1.3633,2.7373-2.5645s.9355-2.8652,.9355-4.9893v-4.7129c-1.1084,1.3408-2.5293,2.4258-4.2617,3.2578-1.7324,.8311-3.8701,1.2471-6.4102,1.2471-2.4951,0-4.6436-.4033-6.4453-1.2129-1.8018-.8076-3.3037-1.9404-4.5049-3.3955s-2.1133-3.1758-2.7373-5.1631c-.623-1.9854-.9814-4.1807-1.0742-6.583-.0459-1.248-.0459-2.4951,0-3.7422,.0928-2.3096,.4385-4.458,1.04-6.4453,.5996-1.9863,1.5127-3.7305,2.7373-5.2324,1.2236-1.501,2.7373-2.668,4.5391-3.499,1.8018-.832,3.9502-1.248,6.4453-1.248,2.6328,0,4.8506,.4971,6.6523,1.4902,1.8018,.9941,3.2803,2.2295,4.4355,3.708v-2.7725c0-.5078,.1611-.9238,.4854-1.2471,.3223-.3232,.7148-.4854,1.1777-.4854h5.6133c.4609,0,.8545,.1621,1.1777,.4854s.4854,.7393,.4854,1.2471l.0693,33.4023c0,3.3271-.624,6.1914-1.8711,8.5938-1.2471,2.4014-3.1299,4.2617-5.6475,5.5791-2.5195,1.3164-5.7412,1.9746-9.668,1.9746Zm-.3467-22.7998c1.8945,0,3.4189-.416,4.5742-1.2471,1.1543-.832,2.0098-1.917,2.5645-3.2578,.5537-1.3389,.877-2.7021,.9697-4.0889,.0459-.5996,.0693-1.3613,.0693-2.2861,0-.9238-.0234-1.6631-.0693-2.2178-.0928-1.4316-.416-2.8066-.9697-4.124-.5547-1.3164-1.4102-2.4014-2.5645-3.2568-1.1553-.8545-2.6797-1.2822-4.5742-1.2822s-3.4189,.4277-4.5732,1.2822c-1.1553,.8555-1.9756,1.9756-2.4609,3.3613-.4844,1.3857-.7734,2.9102-.8662,4.5742-.0928,1.1084-.0928,2.2412,0,3.3955,.0928,1.6172,.3818,3.1299,.8662,4.5391,.4854,1.4102,1.3057,2.5293,2.4609,3.3613,1.1543,.8311,2.6787,1.2471,4.5732,1.2471Z"/></g><g><path class="cls-2" d="M48.8588,33.8792C43.9424,18.2184,44.2813,13.6266,27.7135,0h-.0001c.0041,.005,10.0238,12.261-4.2112,37.7704-2.8308,5.0729-6.6611,9.5005-11.1145,13.2308C4.7862,57.3685,.018,66.4827,0,76.6138c-.0178,10.0392,4.6344,17.4187,12.0959,22.1936,1.7197,1.1005,3.5885,2.0626,5.5839,2.8871,5.986,2.4734,13.11,3.7077,20.7571,3.7213,21.2562,.0377,38.5045-9.3714,38.5387-28.6656,.0002-.1304-.0034-.2601-.0047-.3902l.0683,.0758c-.0308-30.1809-30.5154-26.0095-21.1614-54.1388,.733-2.2044-6.9526,2.9305-7.8044,16.5724"/><ellipse class="cls-1" cx="19.4732" cy="81.8311" rx="6.8217" ry="5.7939" transform="translate(-62.3923 101.1593) rotate(-89.8985)"/><ellipse class="cls-1" cx="57.1333" cy="81.8979" rx="6.8217" ry="5.7939" transform="translate(-24.8656 138.886) rotate(-89.8985)"/></g></g></g></svg>